<mxfile host="www.draw.io" modified="2019-12-30T10:43:47.071Z" agent="Mozilla/5.0 (Windows NT 6.1; Win64; x64) AppleWebKit/537.36 (KHTML, like Gecko) Chrome/79.0.3945.88 Safari/537.36" etag="sFc2wpjjnYGPUwbBHbEu" version="12.4.7" type="github">
  <diagram id="BH_E_tZLBJdYKNmmAHUn" name="Page-1">
    <mxGraphModel dx="1408" dy="699" grid="1" gridSize="10" guides="1" tooltips="1" connect="1" arrows="1" fold="1" page="1" pageScale="1" pageWidth="1654" pageHeight="1169" math="0" shadow="0">
      <root>
        <mxCell id="0"/>
        <mxCell id="1" parent="0"/>
        <mxCell id="i6Kj-Ebq1DtIaQ83pIo8-1" value="nginx" style="whiteSpace=wrap;html=1;aspect=fixed;" parent="1" vertex="1">
          <mxGeometry x="360" y="490" width="70" height="70" as="geometry"/>
        </mxCell>
        <mxCell id="i6Kj-Ebq1DtIaQ83pIo8-3" value="前台网关" style="whiteSpace=wrap;html=1;aspect=fixed;" parent="1" vertex="1">
          <mxGeometry x="530" y="360" width="80" height="80" as="geometry"/>
        </mxCell>
        <mxCell id="i6Kj-Ebq1DtIaQ83pIo8-4" value="后台网关" style="whiteSpace=wrap;html=1;aspect=fixed;" parent="1" vertex="1">
          <mxGeometry x="534" y="580" width="76" height="76" as="geometry"/>
        </mxCell>
        <mxCell id="i6Kj-Ebq1DtIaQ83pIo8-12" value="" style="endArrow=classic;html=1;entryX=-0.05;entryY=0.413;entryDx=0;entryDy=0;entryPerimeter=0;" parent="1" target="i6Kj-Ebq1DtIaQ83pIo8-3" edge="1">
          <mxGeometry width="50" height="50" relative="1" as="geometry">
            <mxPoint x="430" y="490" as="sourcePoint"/>
            <mxPoint x="480" y="440" as="targetPoint"/>
          </mxGeometry>
        </mxCell>
        <mxCell id="i6Kj-Ebq1DtIaQ83pIo8-13" value="" style="endArrow=classic;html=1;entryX=-0.053;entryY=0.842;entryDx=0;entryDy=0;entryPerimeter=0;exitX=1;exitY=1;exitDx=0;exitDy=0;" parent="1" source="i6Kj-Ebq1DtIaQ83pIo8-1" target="i6Kj-Ebq1DtIaQ83pIo8-4" edge="1">
          <mxGeometry width="50" height="50" relative="1" as="geometry">
            <mxPoint x="430" y="580" as="sourcePoint"/>
            <mxPoint x="480" y="530" as="targetPoint"/>
          </mxGeometry>
        </mxCell>
        <mxCell id="i6Kj-Ebq1DtIaQ83pIo8-14" value="/mob -&amp;gt;&amp;nbsp; /shop-mobile-apis/mob&amp;nbsp; &amp;nbsp; &amp;nbsp; &amp;nbsp; &amp;nbsp;" style="text;html=1;strokeColor=none;fillColor=none;align=center;verticalAlign=middle;whiteSpace=wrap;rounded=0;" parent="1" vertex="1">
          <mxGeometry x="308" y="365" width="270" height="75" as="geometry"/>
        </mxCell>
        <mxCell id="i6Kj-Ebq1DtIaQ83pIo8-15" value="&amp;nbsp; &amp;nbsp; &amp;nbsp; &amp;nbsp; &amp;nbsp;&lt;br&gt;&lt;div style=&quot;text-align: left&quot;&gt;/work-&amp;gt; /shop-work-apis/work&lt;/div&gt;" style="text;html=1;strokeColor=none;fillColor=none;align=center;verticalAlign=middle;whiteSpace=wrap;rounded=0;" parent="1" vertex="1">
          <mxGeometry x="300" y="610" width="246" height="36" as="geometry"/>
        </mxCell>
        <mxCell id="i6Kj-Ebq1DtIaQ83pIo8-16" value="shop-mobile-apis" style="whiteSpace=wrap;html=1;aspect=fixed;" parent="1" vertex="1">
          <mxGeometry x="880" y="480" width="80" height="80" as="geometry"/>
        </mxCell>
        <mxCell id="i6Kj-Ebq1DtIaQ83pIo8-17" value="euraka&lt;br&gt;注册中心" style="whiteSpace=wrap;html=1;aspect=fixed;" parent="1" vertex="1">
          <mxGeometry x="830" y="230" width="80" height="80" as="geometry"/>
        </mxCell>
        <mxCell id="i6Kj-Ebq1DtIaQ83pIo8-19" value="" style="endArrow=classic;html=1;entryX=0;entryY=0.5;entryDx=0;entryDy=0;" parent="1" target="i6Kj-Ebq1DtIaQ83pIo8-17" edge="1">
          <mxGeometry width="50" height="50" relative="1" as="geometry">
            <mxPoint x="580" y="360" as="sourcePoint"/>
            <mxPoint x="630" y="310" as="targetPoint"/>
          </mxGeometry>
        </mxCell>
        <mxCell id="i6Kj-Ebq1DtIaQ83pIo8-26" value="" style="endArrow=classic;html=1;entryX=1;entryY=0.75;entryDx=0;entryDy=0;exitX=0;exitY=0.75;exitDx=0;exitDy=0;" parent="1" source="i6Kj-Ebq1DtIaQ83pIo8-17" target="i6Kj-Ebq1DtIaQ83pIo8-3" edge="1">
          <mxGeometry width="50" height="50" relative="1" as="geometry">
            <mxPoint x="810" y="350" as="sourcePoint"/>
            <mxPoint x="840" y="300" as="targetPoint"/>
            <Array as="points"/>
          </mxGeometry>
        </mxCell>
        <mxCell id="i6Kj-Ebq1DtIaQ83pIo8-29" value="" style="endArrow=classic;html=1;entryX=0;entryY=0.5;entryDx=0;entryDy=0;" parent="1" target="i6Kj-Ebq1DtIaQ83pIo8-16" edge="1">
          <mxGeometry width="50" height="50" relative="1" as="geometry">
            <mxPoint x="620" y="420" as="sourcePoint"/>
            <mxPoint x="680" y="430" as="targetPoint"/>
          </mxGeometry>
        </mxCell>
        <mxCell id="i6Kj-Ebq1DtIaQ83pIo8-31" value="调用" style="text;html=1;align=center;verticalAlign=middle;resizable=0;points=[];autosize=1;" parent="1" vertex="1">
          <mxGeometry x="750" y="450" width="40" height="20" as="geometry"/>
        </mxCell>
        <mxCell id="i6Kj-Ebq1DtIaQ83pIo8-37" value="" style="endArrow=classic;html=1;exitX=-0.057;exitY=0.871;exitDx=0;exitDy=0;exitPerimeter=0;entryX=1;entryY=1;entryDx=0;entryDy=0;" parent="1" source="i6Kj-Ebq1DtIaQ83pIo8-16" target="i6Kj-Ebq1DtIaQ83pIo8-3" edge="1">
          <mxGeometry width="50" height="50" relative="1" as="geometry">
            <mxPoint x="890" y="480" as="sourcePoint"/>
            <mxPoint x="720" y="450" as="targetPoint"/>
            <Array as="points"/>
          </mxGeometry>
        </mxCell>
        <mxCell id="i6Kj-Ebq1DtIaQ83pIo8-39" value="返回数据" style="text;html=1;align=center;verticalAlign=middle;resizable=0;points=[];autosize=1;" parent="1" vertex="1">
          <mxGeometry x="710" y="510" width="60" height="20" as="geometry"/>
        </mxCell>
        <mxCell id="i6Kj-Ebq1DtIaQ83pIo8-40" value="" style="endArrow=classic;html=1;entryX=1;entryY=0.5;entryDx=0;entryDy=0;exitX=0.75;exitY=1;exitDx=0;exitDy=0;" parent="1" source="i6Kj-Ebq1DtIaQ83pIo8-3" target="i6Kj-Ebq1DtIaQ83pIo8-1" edge="1">
          <mxGeometry width="50" height="50" relative="1" as="geometry">
            <mxPoint x="590" y="450" as="sourcePoint"/>
            <mxPoint x="600" y="450" as="targetPoint"/>
          </mxGeometry>
        </mxCell>
        <mxCell id="i6Kj-Ebq1DtIaQ83pIo8-41" value="返回数据" style="text;html=1;align=center;verticalAlign=middle;resizable=0;points=[];labelBackgroundColor=#ffffff;" parent="i6Kj-Ebq1DtIaQ83pIo8-40" vertex="1" connectable="0">
          <mxGeometry x="-0.239" y="2" relative="1" as="geometry">
            <mxPoint x="16" y="15.86" as="offset"/>
          </mxGeometry>
        </mxCell>
        <mxCell id="i6Kj-Ebq1DtIaQ83pIo8-45" value="h5" style="whiteSpace=wrap;html=1;aspect=fixed;rounded=0;shadow=0;comic=0;strokeColor=#000000;fillColor=#ffffff;gradientColor=none;" parent="1" vertex="1">
          <mxGeometry x="60" y="490" width="70" height="70" as="geometry"/>
        </mxCell>
        <mxCell id="i6Kj-Ebq1DtIaQ83pIo8-46" value="" style="endArrow=classic;html=1;entryX=0;entryY=0.5;entryDx=0;entryDy=0;exitX=1;exitY=0.5;exitDx=0;exitDy=0;" parent="1" source="i6Kj-Ebq1DtIaQ83pIo8-45" target="i6Kj-Ebq1DtIaQ83pIo8-1" edge="1">
          <mxGeometry width="50" height="50" relative="1" as="geometry">
            <mxPoint x="180" y="560" as="sourcePoint"/>
            <mxPoint x="230" y="510" as="targetPoint"/>
          </mxGeometry>
        </mxCell>
        <mxCell id="i6Kj-Ebq1DtIaQ83pIo8-55" value="&lt;span style=&quot;color: rgb(34 , 34 , 34) ; font-family: &amp;#34;consolas&amp;#34; , &amp;#34;lucida console&amp;#34; , &amp;#34;courier new&amp;#34; , monospace ; text-align: left ; white-space: pre-wrap&quot;&gt;https://beta.51walton.com/mob/member/info&lt;/span&gt;" style="text;html=1;strokeColor=none;fillColor=none;align=center;verticalAlign=middle;whiteSpace=wrap;rounded=0;shadow=0;comic=0;" parent="1" vertex="1">
          <mxGeometry y="460" width="310" height="10" as="geometry"/>
        </mxCell>
        <mxCell id="i6Kj-Ebq1DtIaQ83pIo8-58" value="&lt;h1&gt;&lt;span style=&quot;font-size: 12px ; font-weight: 400&quot;&gt;shop-mobile-apis(去注册中心查找服务)&lt;/span&gt;&lt;br&gt;&lt;/h1&gt;" style="text;html=1;strokeColor=none;fillColor=none;spacing=5;spacingTop=-20;whiteSpace=wrap;overflow=hidden;rounded=0;shadow=0;comic=0;" parent="1" vertex="1">
          <mxGeometry x="570" y="255" width="220" height="35" as="geometry"/>
        </mxCell>
        <mxCell id="i6Kj-Ebq1DtIaQ83pIo8-60" value="&lt;p&gt;注册中心返回服务地址（ip + 端口 +服务名 ）&lt;/p&gt;&lt;p&gt;eg: 192.168.20.62:9830/shop-mobile-apis&lt;/p&gt;" style="text;html=1;strokeColor=none;fillColor=none;spacing=5;spacingTop=-20;whiteSpace=wrap;overflow=hidden;rounded=0;shadow=0;comic=0;" parent="1" vertex="1">
          <mxGeometry x="722" y="370" width="268" height="70" as="geometry"/>
        </mxCell>
        <mxCell id="i6Kj-Ebq1DtIaQ83pIo8-62" value="&lt;font color=&quot;#ff0000&quot;&gt;1&lt;/font&gt;" style="ellipse;whiteSpace=wrap;html=1;rounded=0;shadow=0;comic=0;strokeColor=#FF3333;fillColor=#ffffff;gradientColor=none;" parent="1" vertex="1">
          <mxGeometry x="220" y="530" width="20" height="20" as="geometry"/>
        </mxCell>
        <mxCell id="i6Kj-Ebq1DtIaQ83pIo8-63" value="&lt;font color=&quot;#ff0000&quot;&gt;2&lt;/font&gt;" style="ellipse;whiteSpace=wrap;html=1;rounded=0;shadow=0;comic=0;strokeColor=#FF3333;fillColor=#ffffff;gradientColor=none;" parent="1" vertex="1">
          <mxGeometry x="440" y="430" width="30" height="20" as="geometry"/>
        </mxCell>
        <mxCell id="i6Kj-Ebq1DtIaQ83pIo8-64" value="&lt;font color=&quot;#ff3333&quot;&gt;3&lt;/font&gt;" style="ellipse;whiteSpace=wrap;html=1;rounded=0;shadow=0;comic=0;strokeColor=#FF3333;fillColor=#ffffff;gradientColor=none;" parent="1" vertex="1">
          <mxGeometry x="620" y="310" width="30" height="20" as="geometry"/>
        </mxCell>
        <mxCell id="i6Kj-Ebq1DtIaQ83pIo8-65" value="&lt;font color=&quot;#ff0000&quot;&gt;4&lt;/font&gt;" style="ellipse;whiteSpace=wrap;html=1;rounded=0;shadow=0;comic=0;strokeColor=#FF0000;fillColor=#ffffff;gradientColor=none;" parent="1" vertex="1">
          <mxGeometry x="690" y="335" width="20" height="30" as="geometry"/>
        </mxCell>
        <mxCell id="i6Kj-Ebq1DtIaQ83pIo8-66" value="&lt;font color=&quot;#ff0000&quot;&gt;5&lt;/font&gt;" style="ellipse;whiteSpace=wrap;html=1;rounded=0;shadow=0;comic=0;strokeColor=#FF0000;fillColor=#ffffff;gradientColor=none;" parent="1" vertex="1">
          <mxGeometry x="720" y="440" width="20" height="20" as="geometry"/>
        </mxCell>
        <mxCell id="i6Kj-Ebq1DtIaQ83pIo8-68" value="&lt;font color=&quot;#ff0000&quot;&gt;6&lt;/font&gt;" style="ellipse;whiteSpace=wrap;html=1;rounded=0;shadow=0;comic=0;strokeColor=#FF0000;fillColor=#ffffff;gradientColor=none;" parent="1" vertex="1">
          <mxGeometry x="680" y="476" width="20" height="24" as="geometry"/>
        </mxCell>
        <mxCell id="i6Kj-Ebq1DtIaQ83pIo8-69" value="&lt;font color=&quot;#ff0000&quot;&gt;7&lt;/font&gt;" style="ellipse;whiteSpace=wrap;html=1;rounded=0;shadow=0;comic=0;strokeColor=#FF0000;fillColor=#ffffff;gradientColor=none;" parent="1" vertex="1">
          <mxGeometry x="470" y="500" width="20" height="20" as="geometry"/>
        </mxCell>
        <mxCell id="i6Kj-Ebq1DtIaQ83pIo8-71" value="" style="endArrow=classic;html=1;entryX=1;entryY=0.25;entryDx=0;entryDy=0;exitX=0;exitY=0.25;exitDx=0;exitDy=0;" parent="1" source="i6Kj-Ebq1DtIaQ83pIo8-1" target="i6Kj-Ebq1DtIaQ83pIo8-45" edge="1">
          <mxGeometry width="50" height="50" relative="1" as="geometry">
            <mxPoint x="340" y="540" as="sourcePoint"/>
            <mxPoint x="390" y="490" as="targetPoint"/>
          </mxGeometry>
        </mxCell>
        <mxCell id="i6Kj-Ebq1DtIaQ83pIo8-72" value="&lt;font color=&quot;#ff0000&quot;&gt;8&lt;/font&gt;" style="ellipse;whiteSpace=wrap;html=1;rounded=0;shadow=0;comic=0;strokeColor=#FF0000;fillColor=#ffffff;gradientColor=none;" parent="1" vertex="1">
          <mxGeometry x="220" y="480" width="20" height="24" as="geometry"/>
        </mxCell>
      </root>
    </mxGraphModel>
  </diagram>
</mxfile>
